<svg xmlns="http://www.w3.org/2000/svg" width="16" height="14" viewBox="0 0 16 14"><g><g><path fill="#fa7c30" d="M10.883.515c1.271-.022 1.948.44 2.594 1.03.549-.047 1.262-.354 1.682-.567l.408-.224c-.24.649-.565 1.156-1.065 1.541-.11.086-.22.202-.36.256v.008c.712-.007 1.3-.328 1.858-.503v.008a5.29 5.29 0 0 1-1.113 1.277l-.513.407c.01.755-.01 1.475-.152 2.108-.82 3.686-2.992 6.186-6.43 7.257-1.235.386-3.23.544-4.645.192a11.975 11.975 0 0 1-1.93-.63 7.67 7.67 0 0 1-.929-.48L0 12.02c.319.01.692.098 1.049.04.323-.052.64-.038.937-.104.742-.163 1.402-.378 1.97-.71.275-.161.693-.35.889-.583a2.798 2.798 0 0 1-.977-.176c-1.062-.374-1.68-1.064-2.082-2.1.321.036 1.248.12 1.465-.063-.405-.023-.795-.257-1.073-.431C1.324 7.358.628 6.46.632 5.083c.113.052.225.106.337.159.214.09.432.139.689.192.108.021.324.085.448.039H2.09c-.165-.192-.435-.32-.6-.527C.94 4.265.427 3.216.752 1.968c.082-.317.213-.596.352-.854l.016.008c.064.133.206.232.296.343.28.347.625.66.977.934 1.199.937 2.278 1.514 4.012 1.94.44.109.948.19 1.474.192-.148-.43-.1-1.126.016-1.54.292-1.047.927-1.8 1.858-2.204.222-.097.47-.167.728-.224l.4-.048z"/></g></g></svg>