<svg xmlns="http://www.w3.org/2000/svg" width="16" height="16" viewBox="0 0 16 16"><g><g><path fill="#fff" d="M14 16.014H2a2 2 0 0 1-2-2v-12a2 2 0 0 1 2-2h12a2 2 0 0 1 2 2v12a2 2 0 0 1-2 2zm-6-11.1c-1.247 0-2.32.739-2.812 1.8h-.002l-.014.034c-.03.066-.055.134-.08.202-.012.032-.025.063-.036.096-.023.07-.042.142-.06.213-.008.033-.018.066-.025.1a3.052 3.052 0 0 0-.039.23l-.014.094a3.1 3.1 0 1 0 6.163 0c-.003-.032-.01-.063-.014-.094a3.105 3.105 0 0 0-.038-.23c-.007-.034-.017-.067-.026-.1a3.222 3.222 0 0 0-.06-.213c-.01-.033-.023-.064-.035-.096a3.114 3.114 0 0 0-.08-.202l-.014-.034h-.003A3.099 3.099 0 0 0 8 4.914zm6.2-2.3a.8.8 0 0 0-.8-.8h-1.6a.8.8 0 0 0-.8.8v1.6a.8.8 0 0 0 .8.8h1.6a.8.8 0 0 0 .8-.8zm0 4.1h-1.475a4.9 4.9 0 1 1-9.45 0H1.8v6.7a.8.8 0 0 0 .8.8h10.8a.8.8 0 0 0 .8-.8z"/></g></g></svg>