<svg xmlns="http://www.w3.org/2000/svg" width="13" height="16" viewBox="0 0 13 16"><g><g><path fill="#fff" d="M5.844 10.423c-.13.521-.262 1.066-.399 1.6-.134.527-.252 1.06-.448 1.544-.325.8-.737 1.575-1.277 2.2-.36.418-.283.251-.391.229-.083-.017-.09-.098-.106-.216-.088-.635-.028-1.372.005-2.087.037-.814.208-1.493.367-2.169.303-1.29.592-2.554.897-3.852.02-.087.075-.23.056-.278a4.014 4.014 0 0 1-.267-1.063 3.38 3.38 0 0 1 .087-1.215c.172-.661.57-1.247 1.183-1.46.39-.136.822-.075 1.084.082.27.16.456.416.542.777.093.385.025.845-.05 1.183-.166.76-.386 1.333-.585 2.068-.099.365-.21.74-.118 1.133.084.36.272.61.53.796.265.194.58.3 1.015.285.767-.027 1.3-.517 1.657-.98.57-.74.915-1.74 1.046-2.929.042-.383.073-.824.044-1.258-.055-.803-.306-1.448-.704-1.949a3.299 3.299 0 0 0-1.57-1.068c-.648-.212-1.545-.282-2.342-.146-1.449.248-2.47 1.071-3.072 2.207a4.428 4.428 0 0 0-.523 2.132c0 .656.162 1.166.424 1.562.083.126.205.23.286.374.116.203-.018.507-.075.727-.068.266-.076.633-.386.64-.128.001-.29-.093-.399-.153-.815-.45-1.31-1.271-1.513-2.333a5.589 5.589 0 0 1 0-2.025A5.768 5.768 0 0 1 3.589.942C4.287.529 5.074.24 6.03.1c.318-.046.646-.065 1.003-.082a6.02 6.02 0 0 1 2.704.506 5.535 5.535 0 0 1 1.863 1.34 5.08 5.08 0 0 1 1.146 2.07c.126.432.248.895.248 1.43 0 .535-.113 1.007-.192 1.479-.296 1.768-1.137 3.213-2.399 4.036-.305.2-.676.383-1.096.506-.417.12-.892.212-1.402.176a2.873 2.873 0 0 1-1.24-.36c-.337-.19-.62-.424-.822-.778z"/></g></g></svg>