<svg xmlns="http://www.w3.org/2000/svg" width="16" height="14" viewBox="0 0 16 14"><g><g><path fill="#fff" d="M13.5 3.716v2.44h-1v-2.44H10v-.998h2.5V.278h1v2.44H16v.998zm-6.915-2.47c.888.49 1.407 1.288 1.407 2.33 0 .876-.54 1.566-1.238 2.103-.681.522-.81.74-.81 1.185 0 .378.73 1.024 1.11 1.29C8.17 8.927 8.5 9.645 8.5 10.845c0 1.497-1.445 3.17-4.116 3.17C2.039 14.016 0 12.895 0 11.398 0 9.878 1.866 8.41 4.21 8.41c.255 0 .489-.011.73-.011-.32-.307-.574-.687-.574-1.151 0-.274.09-.55.214-.785-.127.01-.257-.012-.39-.012-1.926 0-3.215-1.39-3.215-3.057 0-1.631 1.78-3.133 3.673-3.133h4.22l-.945.984zm-1.93 7.552c-1.62-.017-3.07.97-3.07 2.156 0 1.21 1.17 2.094 2.79 2.094 2.276 0 3.07-.823 3.07-2.032 0-.146-.018-.289-.052-.428-.178-.685-.808-1.024-1.688-1.624a3.615 3.615 0 0 0-1.05-.166zm1.82-5.203C6.287 2.193 5.207 1.068 4.12 1.036c-1.087-.03-1.816 1.041-1.628 2.444.187 1.402 1.22 2.565 2.308 2.596 1.087.032 1.863-1.078 1.675-2.48z"/></g></g></svg>