<svg xmlns="http://www.w3.org/2000/svg" width="16" height="16" viewBox="0 0 16 16"><g><g><path fill="#fff" d="M16 8.014a8.023 8.023 0 0 1-.63 3.115 8.049 8.049 0 0 1-2.898 3.52A7.976 7.976 0 0 1 6.39 15.85a7.957 7.957 0 0 1-4.047-2.18A8.048 8.048 0 0 1 .63 11.128a7.96 7.96 0 0 1-.63-3.116A8.003 8.003 0 0 1 1.366 3.54a8.006 8.006 0 0 1 2.16-2.16A7.968 7.968 0 0 1 8 .015a8.003 8.003 0 0 1 3.114.63 7.951 7.951 0 0 1 2.543 1.714 8.01 8.01 0 0 1 2.18 4.046c.109.526.163 1.068.163 1.61zm-2.724-4.34c-.013.019-1.108 1.603-3.806 2.705a21.246 21.246 0 0 1 .601 1.343c2.348-.295 4.66.203 4.759.224a6.801 6.801 0 0 0-1.554-4.272zM8 1.182c-.555 0-1.094.068-1.61.193A34.64 34.64 0 0 1 8.944 5.36c2.579-.966 3.552-2.448 3.568-2.474A6.806 6.806 0 0 0 8 1.182zm-1.658.204l.02-.005h.002l-.022.005zm-5.028 5.22c.18.003 3.027.037 6.308-.834a41.056 41.056 0 0 0-2.537-3.937 6.84 6.84 0 0 0-3.771 4.77zm1.604 5.974l-.003-.003s1.87-3.318 5.558-4.51c.09-.028.179-.056.269-.081a22.375 22.375 0 0 0-.554-1.161c-3.518 1.052-6.894.976-7.015.973-.002.071-.005.143-.005.215 0 1.756.662 3.356 1.75 4.567zm7.75 1.726c-.102-.598-.499-2.69-1.46-5.188l-.045.014C5.11 10.544 3.8 13.401 3.8 13.401s-.063-.048-.153-.12A6.804 6.804 0 0 0 8 14.846c.946 0 1.848-.192 2.667-.54zm4.078-5.207c-.141-.047-2.052-.65-4.258-.298.896 2.462 1.26 4.467 1.33 4.88A6.836 6.836 0 0 0 14.746 9.1z"/></g></g></svg>