<svg xmlns="http://www.w3.org/2000/svg" width="10" height="16" viewBox="0 0 10 16"><g><g><path fill="#fff" d="M10.009 15.145c-.68.32-1.297.547-1.849.678a7.798 7.798 0 0 1-1.79.194 4.86 4.86 0 0 1-1.717-.276 4.172 4.172 0 0 1-1.431-.79c-.396-.343-.67-.708-.823-1.092-.152-.385-.228-.944-.228-1.677V6.568H.007V4.301c.626-.203 1.35-.497 1.796-.878.448-.382.805-.84 1.075-1.376.27-.533.456-1.213.558-2.039H5.7v3.703h3.682v2.857H5.701v4.105c0 .93-.012 1.464.086 1.727.097.262.341.534.607.692.353.211.755.318 1.208.318.807 0 1.609-.264 2.407-.79z"/></g></g></svg>